<?xml version="1.0" encoding="UTF-8" standalone="no"?>
<svg
   class="ionicon"
   viewBox="-128 -128 768 768"
   version="1.1"
   id="svg1"
   width="1024"
   height="1024"
   xmlns="http://www.w3.org/2000/svg"
   xmlns:svg="http://www.w3.org/2000/svg">
  <defs
     id="defs1" />
  <path
     d="M 135.49288,172.51332 H 31.83551 V 32 h 103.65737 z m 119.60465,0 H 151.44016 V 32 H 255.09753 Z M 135.49288,334.64407 H 31.83551 V 194.13075 h 103.65737 z m 119.60465,0 H 151.44016 V 194.13075 h 103.65737 z"
     id="path1"
     style="stroke-width:0.580224" />
  <path
     d="M 253.3006,173.59807 H 149.64324 V 33.084746 H 253.3006 Z m 119.60466,0 H 269.24789 V 33.084746 H 372.90526 Z M 253.3006,335.72882 H 149.64324 V 195.2155 H 253.3006 Z m 119.60466,0 H 269.24789 V 195.2155 h 103.65737 z"
     id="path1-6"
     style="stroke-width:0.580224" />
  <path
     d="M 253.46314,334.34383 H 149.80578 V 193.83051 h 103.65736 z m 119.60465,0 H 269.41043 V 193.83051 H 373.06779 Z M 253.46314,496.47458 H 149.80578 V 355.96126 h 103.65736 z m 119.60465,0 H 269.41043 V 355.96126 h 103.65736 z"
     id="path1-3"
     style="stroke-width:0.580224" />
  <path
     d="M 135.03025,334.42858 H 31.372881 V 193.91526 H 135.03025 Z m 119.60465,0 H 150.97753 V 193.91526 H 254.6349 Z M 135.03025,496.55933 H 31.372881 V 356.04601 H 135.03025 Z m 119.60465,0 H 150.97753 V 356.04601 H 254.6349 Z"
     id="path1-1"
     style="stroke-width:0.580224" />
  <path
     d="M 373.12786,172.59801 H 269.47049 V 32.084694 h 103.65737 z m 119.60465,0 H 389.07514 V 32.084694 H 492.73251 Z M 373.12786,334.72876 H 269.47049 V 194.21544 h 103.65737 z m 119.60465,0 H 389.07514 V 194.21544 h 103.65737 z"
     id="path1-0"
     style="stroke-width:0.580224" />
  <path
     d="M 372.66523,334.51327 H 269.00786 V 193.99995 h 103.65737 z m 119.60465,0 H 388.61251 V 193.99995 H 492.26988 Z M 372.66523,496.64402 H 269.00786 V 356.1307 h 103.65737 z m 119.60465,0 H 388.61251 V 356.1307 h 103.65737 z"
     id="path1-1-4"
     style="stroke-width:0.580224" />
</svg>
