<?xml version="1.0" encoding="UTF-8"?>
<svg xmlns="http://www.w3.org/2000/svg" version="1.1" width="16px" height="16px" viewBox="0 0 16 16"
    style="shape-rendering:geometricPrecision; text-rendering:geometricPrecision; image-rendering:optimizeQuality; fill-rule:evenodd; clip-rule:evenodd">
    <g transform="translate(0.5, 0.5) scale(0.322)">
        <path fill="#ffffff"
            d="M 10.5,-0.5 C 11.5,-0.5 12.5,-0.5 13.5,-0.5C 12.9922,3.19742 12.3255,6.86409 11.5,10.5C 5.47747,10.9432 3.97747,13.9432 7,19.5C 13.2598,27.2959 21.2598,32.2959 31,34.5C 32.5,33.6667 33.6667,32.5 34.5,31C 37.8897,30.7537 41.223,30.2537 44.5,29.5C 44.8333,29 45.1667,28.5 45.5,28C 44.7558,25.8449 43.7558,23.8449 42.5,22C 44.7657,18.7878 43.7657,16.4545 39.5,15C 34.9093,13.1363 30.2426,11.4696 25.5,10C 23.0643,9.87623 20.731,10.3762 18.5,11.5C 19.2436,7.88147 19.577,4.21481 19.5,0.5C 20.5,0.5 21.5,0.5 22.5,0.5C 22.5,2.5 22.5,4.5 22.5,6.5C 32.2483,7.35768 40.7483,11.0243 48,17.5C 48.624,19.4645 48.124,21.1311 46.5,22.5C 47.5207,23.9014 48.5207,25.2347 49.5,26.5C 49.5,27.8333 49.5,29.1667 49.5,30.5C 46.331,33.5982 42.6643,34.5982 38.5,33.5C 37.1451,34.1882 36.1451,35.1882 35.5,36.5C 31.8333,36.5 28.1667,36.5 24.5,36.5C 15.4578,32.9684 7.95778,27.3018 2,19.5C -0.07932,12.3078 2.42068,7.97444 9.5,6.5C 9.44805,4.09709 9.78138,1.76375 10.5,-0.5 Z" />
    </g>
</svg>