<?xml version="1.0" encoding="UTF-8" standalone="no"?>
<svg
   viewBox="0 0 64 64"
   width="64"
   height="64"
   version="1.1"
   xmlns="http://www.w3.org/2000/svg"
   xmlns:svg="http://www.w3.org/2000/svg">
  <path
     d="M 22 56 A 2 2 0 0 0 20 58 A 2 2 0 0 0 22 60 L 22.896484 61.787109 A 4 4 0 0 0 26.472656 64 L 37.527344 64 A 4 4 0 0 0 41.103516 61.787109 L 42 60 A 2 2 0 0 0 42 56 L 22 56 z "
      />
  <path
     d="M 18.65625 4.1328125 A 24 24 0 0 0 8 24 A 23.936 23.936 0 0 0 15.304688 41.240234 A 7.856 7.856 0 0 1 17.115234 43.712891 L 20.160156 50.792969 A 2 2 0 0 0 22 52 L 42 52 A 2 2 0 0 0 43.835938 50.792969 L 46.884766 43.716797 C 47.260766 42.840797 47.883313 42.024234 48.695312 41.240234 A 24 24 0 0 0 55.865234 25.974609 L 45.896484 15.455078 L 34.515625 22.001953 L 30.875 17.138672 L 25.251953 24.572266 L 18.716797 4.1582031 L 18.65625 4.1328125 z "
     />
</svg>
